<?xml version="1.0" encoding="UTF-8" standalone="no"?>
<!DOCTYPE svg PUBLIC "-//W3C//DTD SVG 1.1//EN"
 "http://www.w3.org/Graphics/SVG/1.1/DTD/svg11.dtd">
<!-- Generated by graphviz version 2.28.0 (20110507.0327)
 -->
<!-- Title: Chinese Whispers module suggestions Pages: 1 -->
<svg width="644pt" height="164pt"
 viewBox="0.00 0.00 644.00 164.00" xmlns="http://www.w3.org/2000/svg" xmlns:xlink="http://www.w3.org/1999/xlink">
<g id="graph1" class="graph" transform="scale(1 1) rotate(0) translate(4 160)">
<title>Chinese Whispers module suggestions</title>
<polygon fill="white" stroke="white" points="-4,5 -4,-160 641,-160 641,5 -4,5"/>
<g id="graph2" class="cluster"><title>cluster_1</title>
<polygon fill="lavender" stroke="black" points="8,-8 8,-148 158,-148 158,-8 8,-8"/>
</g>
<g id="graph3" class="cluster"><title>cluster_2</title>
<polygon fill="lavender" stroke="black" points="166,-88 166,-148 250,-148 250,-88 166,-88"/>
</g>
<g id="graph4" class="cluster"><title>cluster_3</title>
<polygon fill="lavender" stroke="black" points="258,-88 258,-148 350,-148 350,-88 258,-88"/>
</g>
<g id="graph5" class="cluster"><title>cluster_4</title>
<polygon fill="lavender" stroke="black" points="358,-88 358,-148 518,-148 518,-88 358,-88"/>
</g>
<g id="graph6" class="cluster"><title>cluster_5</title>
<polygon fill="lavender" stroke="black" points="526,-88 526,-148 628,-148 628,-88 526,-88"/>
</g>
<g id="graph7" class="cluster"><title>cluster_6</title>
<polygon fill="lavender" stroke="black" points="166,-8 166,-68 302,-68 302,-8 166,-8"/>
</g>
<!-- 5 -->
<g id="node2" class="node"><title>5</title>
<polygon fill="crimson" stroke="black" points="132,-60 16,-60 16,-16 132,-16 132,-60"/>
<text text-anchor="middle" x="74" y="-41.8" font-family="Times New Roman,serif" font-size="14.00">Test</text>
<text text-anchor="middle" x="74" y="-26.8" font-family="Times New Roman,serif" font-size="14.00">deserialize</text>
</g>
<!-- 5&#45;&gt;5 -->
<g id="edge8" class="edge"><title>5&#45;&gt;5</title>
<path fill="none" stroke="black" d="M132.312,-52.1202C142.726,-50.2849 150,-45.5781 150,-38 150,-33.1453 147.015,-29.469 142.131,-26.9711"/>
<polygon fill="black" stroke="black" points="142.901,-23.5443 132.312,-23.8798 140.799,-30.2212 142.901,-23.5443"/>
</g>
<!-- 6 -->
<g id="node3" class="node"><title>6</title>
<polygon fill="crimson" stroke="black" points="132.25,-140 47.75,-140 47.75,-96 132.25,-96 132.25,-140"/>
<text text-anchor="middle" x="90" y="-121.8" font-family="Times New Roman,serif" font-size="14.00">Test</text>
<text text-anchor="middle" x="90" y="-106.8" font-family="Times New Roman,serif" font-size="14.00">main</text>
</g>
<!-- 6&#45;&gt;5 -->
<g id="edge10" class="edge"><title>6&#45;&gt;5</title>
<path fill="none" stroke="black" d="M85.6279,-95.6862C83.992,-87.7108 82.0992,-78.4836 80.3221,-69.8202"/>
<polygon fill="black" stroke="black" points="83.7495,-69.1107 78.3114,-60.018 76.8923,-70.5174 83.7495,-69.1107"/>
</g>
<!-- 7 -->
<g id="node13" class="node"><title>7</title>
<polygon fill="crimson" stroke="black" points="276,-60 174,-60 174,-16 276,-16 276,-60"/>
<text text-anchor="middle" x="225" y="-41.8" font-family="Times New Roman,serif" font-size="14.00">Test</text>
<text text-anchor="middle" x="225" y="-26.8" font-family="Times New Roman,serif" font-size="14.00">serialize</text>
</g>
<!-- 6&#45;&gt;7 -->
<g id="edge12" class="edge"><title>6&#45;&gt;7</title>
<path fill="none" stroke="black" d="M126.533,-95.8921C142.891,-86.4407 162.347,-75.1995 179.628,-65.2152"/>
<polygon fill="black" stroke="black" points="181.53,-68.1582 188.438,-60.1248 178.028,-62.0971 181.53,-68.1582"/>
</g>
<!-- 1 -->
<g id="node5" class="node"><title>1</title>
<polygon fill="crimson" stroke="black" points="242,-140 174,-140 174,-96 242,-96 242,-140"/>
<text text-anchor="middle" x="208" y="-121.8" font-family="Times New Roman,serif" font-size="14.00">A</text>
<text text-anchor="middle" x="208" y="-106.8" font-family="Times New Roman,serif" font-size="14.00">f</text>
</g>
<!-- 2 -->
<g id="node7" class="node"><title>2</title>
<polygon fill="crimson" stroke="black" points="341.25,-140 266.75,-140 266.75,-96 341.25,-96 341.25,-140"/>
<text text-anchor="middle" x="304" y="-121.8" font-family="Times New Roman,serif" font-size="14.00">A</text>
<text text-anchor="middle" x="304" y="-106.8" font-family="Times New Roman,serif" font-size="14.00">inc</text>
</g>
<!-- 3 -->
<g id="node9" class="node"><title>3</title>
<polygon fill="crimson" stroke="black" points="509.25,-140 366.75,-140 366.75,-96 509.25,-96 509.25,-140"/>
<text text-anchor="middle" x="438" y="-121.8" font-family="Times New Roman,serif" font-size="14.00">CoreTranslator</text>
<text text-anchor="middle" x="438" y="-106.8" font-family="Times New Roman,serif" font-size="14.00">coreBindParse</text>
</g>
<!-- 4 -->
<g id="node11" class="node"><title>4</title>
<polygon fill="gold" stroke="black" points="620,-140 534,-140 534,-96 620,-96 620,-140"/>
<text text-anchor="middle" x="577" y="-121.8" font-family="Times New Roman,serif" font-size="14.00">Main</text>
<text text-anchor="middle" x="577" y="-106.8" font-family="Times New Roman,serif" font-size="14.00">main</text>
</g>
<!-- 7&#45;&gt;7 -->
<g id="edge14" class="edge"><title>7&#45;&gt;7</title>
<path fill="none" stroke="black" d="M276.155,-52.4278C286.553,-50.8561 294,-46.0469 294,-38 294,-32.845 290.944,-29.0187 286.013,-26.5211"/>
<polygon fill="black" stroke="black" points="286.738,-23.0847 276.155,-23.5722 284.732,-29.7911 286.738,-23.0847"/>
</g>
</g>
</svg>
