<?xml version="1.0" encoding="UTF-8" standalone="no"?>
<!DOCTYPE svg PUBLIC "-//W3C//DTD SVG 1.1//EN"
 "http://www.w3.org/Graphics/SVG/1.1/DTD/svg11.dtd">
<!-- Generated by graphviz version 2.28.0 (20110507.0327)
 -->
<!-- Title: Entire Codebase Pages: 1 -->
<svg width="637pt" height="132pt"
 viewBox="0.00 0.00 637.00 132.00" xmlns="http://www.w3.org/2000/svg" xmlns:xlink="http://www.w3.org/1999/xlink">
<g id="graph1" class="graph" transform="scale(1 1) rotate(0) translate(4 128)">
<title>Entire Codebase</title>
<polygon fill="white" stroke="white" points="-4,5 -4,-128 634,-128 634,5 -4,5"/>
<!-- 1 -->
<g id="node1" class="node"><title>1</title>
<polygon fill="crimson" stroke="black" points="68,-124 0,-124 0,-80 68,-80 68,-124"/>
<text text-anchor="middle" x="34" y="-105.8" font-family="Times New Roman,serif" font-size="14.00">A</text>
<text text-anchor="middle" x="34" y="-90.8" font-family="Times New Roman,serif" font-size="14.00">f</text>
</g>
<!-- 2 -->
<g id="node2" class="node"><title>2</title>
<polygon fill="crimson" stroke="black" points="161.25,-124 86.75,-124 86.75,-80 161.25,-80 161.25,-124"/>
<text text-anchor="middle" x="124" y="-105.8" font-family="Times New Roman,serif" font-size="14.00">A</text>
<text text-anchor="middle" x="124" y="-90.8" font-family="Times New Roman,serif" font-size="14.00">inc</text>
</g>
<!-- 3 -->
<g id="node3" class="node"><title>3</title>
<polygon fill="crimson" stroke="black" points="322.25,-124 179.75,-124 179.75,-80 322.25,-80 322.25,-124"/>
<text text-anchor="middle" x="251" y="-105.8" font-family="Times New Roman,serif" font-size="14.00">CoreTranslator</text>
<text text-anchor="middle" x="251" y="-90.8" font-family="Times New Roman,serif" font-size="14.00">coreBindParse</text>
</g>
<!-- 4 -->
<g id="node4" class="node"><title>4</title>
<polygon fill="gold" stroke="black" points="427,-124 341,-124 341,-80 427,-80 427,-124"/>
<text text-anchor="middle" x="384" y="-105.8" font-family="Times New Roman,serif" font-size="14.00">Main</text>
<text text-anchor="middle" x="384" y="-90.8" font-family="Times New Roman,serif" font-size="14.00">main</text>
</g>
<!-- 5 -->
<g id="node5" class="node"><title>5</title>
<polygon fill="crimson" stroke="black" points="473,-44 357,-44 357,-0 473,-0 473,-44"/>
<text text-anchor="middle" x="415" y="-25.8" font-family="Times New Roman,serif" font-size="14.00">Test</text>
<text text-anchor="middle" x="415" y="-10.8" font-family="Times New Roman,serif" font-size="14.00">deserialize</text>
</g>
<!-- 5&#45;&gt;5 -->
<g id="edge2" class="edge"><title>5&#45;&gt;5</title>
<path fill="none" stroke="black" d="M473.312,-36.1202C483.726,-34.2849 491,-29.5781 491,-22 491,-17.1453 488.015,-13.469 483.131,-10.9711"/>
<polygon fill="black" stroke="black" points="483.901,-7.54428 473.312,-7.87982 481.799,-14.2212 483.901,-7.54428"/>
</g>
<!-- 6 -->
<g id="node6" class="node"><title>6</title>
<polygon fill="crimson" stroke="black" points="530.25,-124 445.75,-124 445.75,-80 530.25,-80 530.25,-124"/>
<text text-anchor="middle" x="488" y="-105.8" font-family="Times New Roman,serif" font-size="14.00">Test</text>
<text text-anchor="middle" x="488" y="-90.8" font-family="Times New Roman,serif" font-size="14.00">main</text>
</g>
<!-- 6&#45;&gt;5 -->
<g id="edge4" class="edge"><title>6&#45;&gt;5</title>
<path fill="none" stroke="black" d="M468.052,-79.6862C459.939,-71.0173 450.442,-60.8694 441.743,-51.5742"/>
<polygon fill="black" stroke="black" points="444.059,-48.9276 434.671,-44.018 438.948,-53.7109 444.059,-48.9276"/>
</g>
<!-- 7 -->
<g id="node7" class="node"><title>7</title>
<polygon fill="crimson" stroke="black" points="611,-44 509,-44 509,-0 611,-0 611,-44"/>
<text text-anchor="middle" x="560" y="-25.8" font-family="Times New Roman,serif" font-size="14.00">Test</text>
<text text-anchor="middle" x="560" y="-10.8" font-family="Times New Roman,serif" font-size="14.00">serialize</text>
</g>
<!-- 6&#45;&gt;7 -->
<g id="edge6" class="edge"><title>6&#45;&gt;7</title>
<path fill="none" stroke="black" d="M507.674,-79.6862C515.676,-71.0173 525.044,-60.8694 533.624,-51.5742"/>
<polygon fill="black" stroke="black" points="536.388,-53.7401 540.599,-44.018 531.244,-48.9921 536.388,-53.7401"/>
</g>
<!-- 7&#45;&gt;7 -->
<g id="edge8" class="edge"><title>7&#45;&gt;7</title>
<path fill="none" stroke="black" d="M611.155,-36.4278C621.553,-34.8561 629,-30.0469 629,-22 629,-16.845 625.944,-13.0187 621.013,-10.5211"/>
<polygon fill="black" stroke="black" points="621.738,-7.0847 611.155,-7.5722 619.732,-13.7911 621.738,-7.0847"/>
</g>
</g>
</svg>
