<?xml version="1.0" encoding="UTF-8" standalone="no"?>
<!DOCTYPE svg PUBLIC "-//W3C//DTD SVG 1.1//EN"
 "http://www.w3.org/Graphics/SVG/1.1/DTD/svg11.dtd">
<!-- Generated by graphviz version 2.28.0 (20110507.0327)
 -->
<!-- Title: Current module groupings Pages: 1 -->
<svg width="767pt" height="171pt"
 viewBox="0.00 0.00 767.00 171.00" xmlns="http://www.w3.org/2000/svg" xmlns:xlink="http://www.w3.org/1999/xlink">
<g id="graph1" class="graph" transform="scale(1 1) rotate(0) translate(4 167)">
<title>Current module groupings</title>
<polygon fill="white" stroke="white" points="-4,5 -4,-167 764,-167 764,5 -4,5"/>
<g id="graph2" class="cluster"><title>cluster_A</title>
<polygon fill="lavender" stroke="black" points="8,-80 8,-155 181,-155 181,-80 8,-80"/>
<text text-anchor="middle" x="94.5" y="-139.8" font-family="Times New Roman,serif" font-size="14.00">A</text>
</g>
<g id="graph3" class="cluster"><title>cluster_CoreTranslator</title>
<polygon fill="lavender" stroke="black" points="189,-80 189,-155 345,-155 345,-80 189,-80"/>
<text text-anchor="middle" x="267" y="-139.8" font-family="Times New Roman,serif" font-size="14.00">CoreTranslator</text>
</g>
<g id="graph4" class="cluster"><title>cluster_Main</title>
<polygon fill="lavender" stroke="black" points="353,-80 353,-155 455,-155 455,-80 353,-80"/>
<text text-anchor="middle" x="404" y="-139.8" font-family="Times New Roman,serif" font-size="14.00">Main</text>
</g>
<g id="graph5" class="cluster"><title>cluster_Test</title>
<polygon fill="lavender" stroke="black" points="463,-8 463,-155 751,-155 751,-8 463,-8"/>
<text text-anchor="middle" x="607" y="-139.8" font-family="Times New Roman,serif" font-size="14.00">Test</text>
</g>
<!-- 1 -->
<g id="node2" class="node"><title>1</title>
<polygon fill="crimson" stroke="black" points="172.25,-124 109.75,-124 109.75,-88 172.25,-88 172.25,-124"/>
<text text-anchor="middle" x="141" y="-102.3" font-family="Times New Roman,serif" font-size="14.00">f</text>
</g>
<!-- 2 -->
<g id="node3" class="node"><title>2</title>
<polygon fill="crimson" stroke="black" points="91.25,-124 16.75,-124 16.75,-88 91.25,-88 91.25,-124"/>
<text text-anchor="middle" x="54" y="-102.3" font-family="Times New Roman,serif" font-size="14.00">inc</text>
</g>
<!-- 3 -->
<g id="node5" class="node"><title>3</title>
<polygon fill="crimson" stroke="black" points="337,-124 197,-124 197,-88 337,-88 337,-124"/>
<text text-anchor="middle" x="267" y="-102.3" font-family="Times New Roman,serif" font-size="14.00">coreBindParse</text>
</g>
<!-- 4 -->
<g id="node7" class="node"><title>4</title>
<polygon fill="gold" stroke="black" points="446.25,-124 361.75,-124 361.75,-88 446.25,-88 446.25,-124"/>
<text text-anchor="middle" x="404" y="-102.3" font-family="Times New Roman,serif" font-size="14.00">main</text>
</g>
<!-- 5 -->
<g id="node9" class="node"><title>5</title>
<polygon fill="crimson" stroke="black" points="587,-52 471,-52 471,-16 587,-16 587,-52"/>
<text text-anchor="middle" x="529" y="-30.3" font-family="Times New Roman,serif" font-size="14.00">deserialize</text>
</g>
<!-- 5&#45;&gt;5 -->
<g id="edge6" class="edge"><title>5&#45;&gt;5</title>
<path fill="none" stroke="black" d="M587.312,-46.7082C597.726,-45.0564 605,-40.8203 605,-34 605,-29.6307 602.015,-26.3221 597.131,-24.074"/>
<polygon fill="black" stroke="black" points="597.887,-20.6505 587.312,-21.2918 595.979,-27.3854 597.887,-20.6505"/>
</g>
<!-- 6 -->
<g id="node10" class="node"><title>6</title>
<polygon fill="crimson" stroke="black" points="643.25,-124 558.75,-124 558.75,-88 643.25,-88 643.25,-124"/>
<text text-anchor="middle" x="601" y="-102.3" font-family="Times New Roman,serif" font-size="14.00">main</text>
</g>
<!-- 6&#45;&gt;5 -->
<g id="edge8" class="edge"><title>6&#45;&gt;5</title>
<path fill="none" stroke="black" d="M583.202,-87.6966C574.396,-79.135 563.618,-68.6562 553.999,-59.3045"/>
<polygon fill="black" stroke="black" points="556.203,-56.5657 546.593,-52.1043 551.323,-61.5846 556.203,-56.5657"/>
</g>
<!-- 7 -->
<g id="node11" class="node"><title>7</title>
<polygon fill="crimson" stroke="black" points="725,-52 623,-52 623,-16 725,-16 725,-52"/>
<text text-anchor="middle" x="674" y="-30.3" font-family="Times New Roman,serif" font-size="14.00">serialize</text>
</g>
<!-- 6&#45;&gt;7 -->
<g id="edge10" class="edge"><title>6&#45;&gt;7</title>
<path fill="none" stroke="black" d="M619.045,-87.6966C628.062,-79.0503 639.118,-68.4486 648.943,-59.027"/>
<polygon fill="black" stroke="black" points="651.367,-61.5518 656.163,-52.1043 646.522,-56.4993 651.367,-61.5518"/>
</g>
<!-- 7&#45;&gt;7 -->
<g id="edge12" class="edge"><title>7&#45;&gt;7</title>
<path fill="none" stroke="black" d="M725.155,-46.985C735.553,-45.5705 743,-41.2422 743,-34 743,-29.3605 739.944,-25.9168 735.013,-23.669"/>
<polygon fill="black" stroke="black" points="735.721,-20.2348 725.155,-21.015 733.901,-26.9942 735.721,-20.2348"/>
</g>
</g>
</svg>
