<?xml version="1.0" encoding="UTF-8" standalone="no"?>
<!DOCTYPE svg PUBLIC "-//W3C//DTD SVG 1.1//EN"
 "http://www.w3.org/Graphics/SVG/1.1/DTD/svg11.dtd">
<!-- Generated by graphviz version 2.28.0 (20110507.0327)
 -->
<!-- Title: Levels within software Pages: 1 -->
<svg width="611pt" height="187pt"
 viewBox="0.00 0.00 611.00 187.00" xmlns="http://www.w3.org/2000/svg" xmlns:xlink="http://www.w3.org/1999/xlink">
<g id="graph1" class="graph" transform="scale(1 1) rotate(0) translate(4 183)">
<title>Levels within software</title>
<polygon fill="white" stroke="white" points="-4,5 -4,-183 608,-183 608,5 -4,5"/>
<g id="graph2" class="cluster"><title>cluster_&#45;1</title>
<polygon fill="lavender" stroke="black" points="8,-8 8,-171 450,-171 450,-8 8,-8"/>
<text text-anchor="middle" x="229" y="-155.8" font-family="Times New Roman,serif" font-size="14.00">Inaccessible entities</text>
</g>
<g id="graph3" class="cluster"><title>cluster_0</title>
<polygon fill="lavender" stroke="black" points="458,-88 458,-171 595,-171 595,-88 458,-88"/>
<text text-anchor="middle" x="526.5" y="-155.8" font-family="Times New Roman,serif" font-size="14.00">Exported root entities</text>
</g>
<!-- 1 -->
<g id="node2" class="node"><title>1</title>
<polygon fill="crimson" stroke="black" points="442,-140 374,-140 374,-96 442,-96 442,-140"/>
<text text-anchor="middle" x="408" y="-121.8" font-family="Times New Roman,serif" font-size="14.00">A</text>
<text text-anchor="middle" x="408" y="-106.8" font-family="Times New Roman,serif" font-size="14.00">f</text>
</g>
<!-- 2 -->
<g id="node3" class="node"><title>2</title>
<polygon fill="crimson" stroke="black" points="355.25,-140 280.75,-140 280.75,-96 355.25,-96 355.25,-140"/>
<text text-anchor="middle" x="318" y="-121.8" font-family="Times New Roman,serif" font-size="14.00">A</text>
<text text-anchor="middle" x="318" y="-106.8" font-family="Times New Roman,serif" font-size="14.00">inc</text>
</g>
<!-- 3 -->
<g id="node4" class="node"><title>3</title>
<polygon fill="crimson" stroke="black" points="262.25,-140 119.75,-140 119.75,-96 262.25,-96 262.25,-140"/>
<text text-anchor="middle" x="191" y="-121.8" font-family="Times New Roman,serif" font-size="14.00">CoreTranslator</text>
<text text-anchor="middle" x="191" y="-106.8" font-family="Times New Roman,serif" font-size="14.00">coreBindParse</text>
</g>
<!-- 5 -->
<g id="node5" class="node"><title>5</title>
<polygon fill="crimson" stroke="black" points="132,-60 16,-60 16,-16 132,-16 132,-60"/>
<text text-anchor="middle" x="74" y="-41.8" font-family="Times New Roman,serif" font-size="14.00">Test</text>
<text text-anchor="middle" x="74" y="-26.8" font-family="Times New Roman,serif" font-size="14.00">deserialize</text>
</g>
<!-- 5&#45;&gt;5 -->
<g id="edge4" class="edge"><title>5&#45;&gt;5</title>
<path fill="none" stroke="black" d="M132.312,-52.1202C142.726,-50.2849 150,-45.5781 150,-38 150,-33.1453 147.015,-29.469 142.131,-26.9711"/>
<polygon fill="black" stroke="black" points="142.901,-23.5443 132.312,-23.8798 140.799,-30.2212 142.901,-23.5443"/>
</g>
<!-- 6 -->
<g id="node6" class="node"><title>6</title>
<polygon fill="crimson" stroke="black" points="101.25,-140 16.75,-140 16.75,-96 101.25,-96 101.25,-140"/>
<text text-anchor="middle" x="59" y="-121.8" font-family="Times New Roman,serif" font-size="14.00">Test</text>
<text text-anchor="middle" x="59" y="-106.8" font-family="Times New Roman,serif" font-size="14.00">main</text>
</g>
<!-- 6&#45;&gt;5 -->
<g id="edge6" class="edge"><title>6&#45;&gt;5</title>
<path fill="none" stroke="black" d="M63.0988,-95.6862C64.6159,-87.7975 66.3685,-78.684 68.0187,-70.1029"/>
<polygon fill="black" stroke="black" points="71.5065,-70.4991 69.9581,-60.018 64.6325,-69.1771 71.5065,-70.4991"/>
</g>
<!-- 7 -->
<g id="node7" class="node"><title>7</title>
<polygon fill="crimson" stroke="black" points="270,-60 168,-60 168,-16 270,-16 270,-60"/>
<text text-anchor="middle" x="219" y="-41.8" font-family="Times New Roman,serif" font-size="14.00">Test</text>
<text text-anchor="middle" x="219" y="-26.8" font-family="Times New Roman,serif" font-size="14.00">serialize</text>
</g>
<!-- 6&#45;&gt;7 -->
<g id="edge8" class="edge"><title>6&#45;&gt;7</title>
<path fill="none" stroke="black" d="M96.0099,-95.8701C101.014,-93.1572 106.109,-90.4681 111,-88 126.981,-79.936 144.563,-71.6979 160.815,-64.3341"/>
<polygon fill="black" stroke="black" points="162.526,-67.4025 170.209,-60.1073 159.654,-61.019 162.526,-67.4025"/>
</g>
<!-- 7&#45;&gt;7 -->
<g id="edge10" class="edge"><title>7&#45;&gt;7</title>
<path fill="none" stroke="black" d="M270.155,-52.4278C280.553,-50.8561 288,-46.0469 288,-38 288,-32.845 284.944,-29.0187 280.013,-26.5211"/>
<polygon fill="black" stroke="black" points="280.738,-23.0847 270.155,-23.5722 278.732,-29.7911 280.738,-23.0847"/>
</g>
<!-- 4 -->
<g id="node9" class="node"><title>4</title>
<polygon fill="gold" stroke="black" points="569,-140 483,-140 483,-96 569,-96 569,-140"/>
<text text-anchor="middle" x="526" y="-121.8" font-family="Times New Roman,serif" font-size="14.00">Main</text>
<text text-anchor="middle" x="526" y="-106.8" font-family="Times New Roman,serif" font-size="14.00">main</text>
</g>
</g>
</svg>
