<?xml version="1.0" encoding="UTF-8" standalone="no"?>
<!DOCTYPE svg PUBLIC "-//W3C//DTD SVG 1.1//EN"
 "http://www.w3.org/Graphics/SVG/1.1/DTD/svg11.dtd">
<!-- Generated by graphviz version 2.28.0 (20110507.0327)
 -->
<!-- Title: Import visualisation Pages: 1 -->
<svg width="443pt" height="44pt"
 viewBox="0.00 0.00 443.00 44.00" xmlns="http://www.w3.org/2000/svg" xmlns:xlink="http://www.w3.org/1999/xlink">
<g id="graph1" class="graph" transform="scale(1 1) rotate(0) translate(4 40)">
<title>Import visualisation</title>
<polygon fill="white" stroke="white" points="-4,5 -4,-40 440,-40 440,5 -4,5"/>
<!-- 1 -->
<g id="node1" class="node"><title>1</title>
<polygon fill="crimson" stroke="black" points="68,-36 12,-36 12,-40 0,-40 0,-0 68,-0 68,-36"/>
<polyline fill="none" stroke="black" points="0,-36 12,-36 "/>
<text text-anchor="middle" x="34" y="-14.3" font-family="Times New Roman,serif" font-size="14.00">A</text>
</g>
<!-- 2 -->
<g id="node2" class="node"><title>2</title>
<polygon fill="crimson" stroke="black" points="229.25,-36 98.75,-36 98.75,-40 86.75,-40 86.75,-0 229.25,-0 229.25,-36"/>
<polyline fill="none" stroke="black" points="86.75,-36 98.75,-36 "/>
<text text-anchor="middle" x="158" y="-14.3" font-family="Times New Roman,serif" font-size="14.00">CoreTranslator</text>
</g>
<!-- 3 -->
<g id="node3" class="node"><title>3</title>
<polygon fill="gold" stroke="black" points="334,-36 260,-36 260,-40 248,-40 248,-0 334,-0 334,-36"/>
<polyline fill="none" stroke="black" points="248,-36 260,-36 "/>
<text text-anchor="middle" x="291" y="-14.3" font-family="Times New Roman,serif" font-size="14.00">Main</text>
</g>
<!-- 4 -->
<g id="node4" class="node"><title>4</title>
<polygon fill="crimson" stroke="black" points="435.25,-36 364.75,-36 364.75,-40 352.75,-40 352.75,-0 435.25,-0 435.25,-36"/>
<polyline fill="none" stroke="black" points="352.75,-36 364.75,-36 "/>
<text text-anchor="middle" x="394" y="-14.3" font-family="Times New Roman,serif" font-size="14.00">Test</text>
</g>
</g>
</svg>
